<svg width="29" height="29" viewBox="0 0 29 29" fill="none"
    xmlns="http://www.w3.org/2000/svg">
    <path d="M24.753 4.24691C22.0143 1.50823 18.373 0 14.5 0C10.627 0 6.98566 1.50823 4.24697 4.24697C1.50828 6.98566 0 10.6269 0 14.5001C0 18.3731 1.50823 22.0145 4.24691 24.7531C6.9856 27.4917 10.6269 29 14.4999 29C18.373 29 22.0143 27.4918 24.753 24.7531C27.4917 22.0143 29 18.3731 29 14.5C29 10.6269 27.4917 6.98566 24.753 4.24691ZM23.5515 23.5516C21.1337 25.9693 17.9192 27.3008 14.4999 27.3008C11.0807 27.3008 7.86614 25.9693 5.44843 23.5516C3.03067 21.1338 1.69922 17.9193 1.69922 14.5001C1.69922 11.0808 3.03078 7.86625 5.44849 5.44849C7.86625 3.03073 11.0808 1.69922 14.5 1.69922C17.9192 1.69922 21.1338 3.03073 23.5516 5.44843C28.5425 10.4395 28.5425 18.5605 23.5515 23.5516Z" fill="#5BE6FE"/>
    <path d="M20.8922 19.6906L15.7016 14.5L20.8922 9.30938C21.224 8.97758 21.224 8.43966 20.8922 8.10792C20.5604 7.77611 20.0225 7.77611 19.6907 8.10792L14.5001 13.2985L9.3095 8.10786C8.97775 7.77606 8.43978 7.77606 8.10798 8.10786C7.77618 8.43966 7.77618 8.97758 8.10798 9.30938L13.2986 14.5L8.10798 19.6906C7.77618 20.0224 7.77618 20.5603 8.10798 20.8921C8.27388 21.058 8.49133 21.1409 8.70871 21.1409C8.92616 21.1409 9.1436 21.058 9.3095 20.8921L14.5001 15.7015L19.6907 20.8921C19.8566 21.058 20.0741 21.1409 20.2915 21.1409C20.5089 21.1409 20.7264 21.058 20.8922 20.8921C21.224 20.5603 21.224 20.0224 20.8922 19.6906Z" fill="#5BE6FE"/>
</svg>
