<svg width="10" height="8" viewBox="0 0 10 8" fill="none"
    xmlns="http://www.w3.org/2000/svg">
    <path d="M8.50486 0.55238C8.22884 0.560424 7.96678 0.675569 7.77417 0.873437C6.11589 2.53532 4.83745 3.92879 3.31812 5.4845L1.77372 4.17813C1.66794 4.08298 1.54413 4.01005 1.40964 3.96364C1.27514 3.91723 1.1327 3.89829 0.990754 3.90795C0.848807 3.91761 0.710244 3.95567 0.583278 4.01987C0.456311 4.08407 0.343526 4.1731 0.251608 4.2817C0.159689 4.3903 0.0905082 4.51624 0.048165 4.65207C0.00582184 4.7879 -0.00882157 4.93085 0.00510291 5.07244C0.0190274 5.21403 0.0612364 5.35139 0.129228 5.47637C0.197219 5.60135 0.289609 5.7114 0.400921 5.80001L2.70368 7.7485C2.90741 7.92088 3.16854 8.01032 3.43518 7.99904C3.70182 7.98776 3.95446 7.87659 4.1429 7.68762C6.0543 5.77211 7.41234 4.24508 9.27982 2.37356C9.43235 2.2239 9.53623 2.03175 9.57791 1.82217C9.61958 1.61258 9.59712 1.39531 9.51345 1.19868C9.42978 1.00205 9.28878 0.835204 9.10887 0.719915C8.92895 0.604625 8.71846 0.54624 8.50486 0.55238Z" fill="black"/>
</svg>
